<?xml version="1.0" encoding="UTF-8"?>
<svg width="100px" height="60px" viewBox="0 0 100 60" version="1.1" xmlns="http://www.w3.org/2000/svg" xmlns:xlink="http://www.w3.org/1999/xlink">
    <!-- Generator: Sketch 43.2 (39069) - http://www.bohemiancoding.com/sketch -->
    <title>logo-export</title>
    <desc>Created with Sketch.</desc>
    <defs></defs>
    <g id="Page-1" stroke="none" stroke-width="1" fill="none" fill-rule="evenodd">
        <g id="Artboard" transform="translate(-559.000000, -277.000000)">
            <g id="Group" transform="translate(0.000000, 1.000000)">
                <g id="Group-3" transform="translate(473.000000, 276.000000)">
                    <g id="logo-export" transform="translate(86.000000, 0.000000)">
                        <path d="M0,30 C0,13.4314575 13.4345247,0 30.0032973,0 L69.9967027,0 C86.5670662,0 100,13.4278145 100,30 C100,46.5685425 86.5654753,60 69.9967027,60 L30.0032973,60 C13.4329338,60 0,46.5721855 0,30 Z" id="Rectangle-2" fill="#006AFF" fill-rule="nonzero"></path>
                        <g id="Group-2" transform="translate(2.000000, 2.000000)">
                            <path d="M0,28 C0,43.466271 12.5361581,56 28.0032973,56 L67.9967027,56 C83.4615209,56 96,43.463358 96,28 C96,12.533729 83.4638419,0 67.9967027,0 L28.0032973,0 C12.5384791,0 0,12.536642 0,28 Z" id="Path" fill="#EAF3FF"></path>
                            <path d="M33,40 C25.3699951,40 21,34.627417 21,28 C21,21.372583 25.3699951,16 33,16 C40.6300049,16 49,28 49,28 C49,28 40.6300049,40 33,40 Z" id="Oval" fill="#006AFF" fill-rule="nonzero"></path>
                            <path d="M63,40 C55.3699951,40 47,28 47,28 C47,28 55.3699951,16 63,16 C70.6300049,16 75,21.372583 75,28 C75,34.627417 70.6300049,40 63,40 Z" id="Oval" fill="#006AFF" fill-rule="nonzero"></path>
                            <path d="M46.0138758,27.3776879 C44.9295349,26.0281187 43.7307665,24.6785338 42.457897,23.4249896 C39.6114128,20.6217219 36.8317606,18.7353328 34.4154027,18.1725308 C33.9215005,18.0574944 33.4496264,18 33,18 C26.8482846,18 23,22.0839745 23,28 C23,33.9160255 26.8482846,38 33,38 C33.4496264,38 33.9215005,37.9425056 34.4154027,37.8274692 C36.8317606,37.2646672 39.6114128,35.3782781 42.457897,32.5750104 C43.7307665,31.3214662 44.9295349,29.9718813 46.0138758,28.6223121 C46.1866449,28.4072838 46.3506564,28.1994714 46.5054661,28 C46.3506564,27.8005286 46.1866449,27.5927162 46.0138758,27.3776879 Z" id="Path" fill="#FFFFFF"></path>
                            <path d="M49.9861242,28.6223121 C51.0704651,29.9718813 52.2692335,31.3214662 53.542103,32.5750104 C56.3885872,35.3782781 59.1682394,37.2646672 61.5845973,37.8274692 C62.0784995,37.9425056 62.5503736,38 63,38 C69.1517154,38 73,33.9160255 73,28 C73,22.0839745 69.1517154,18 63,18 C62.5503736,18 62.0784995,18.0574944 61.5845973,18.1725308 C59.1682394,18.7353328 56.3885872,20.6217219 53.542103,23.4249896 C52.2692335,24.6785338 51.0704651,26.0281187 49.9861242,27.3776879 C49.8133551,27.5927162 49.6493436,27.8005286 49.4945339,28 C49.6493436,28.1994714 49.8133551,28.4072838 49.9861242,28.6223121 Z" id="Path" fill="#FFFFFF"></path>
                        </g>
                    </g>
                </g>
            </g>
        </g>
    </g>
</svg>